<svg xmlns="http://www.w3.org/2000/svg" width="28" height="28" viewBox="0 0 28 28">
    <g fill="none" fill-rule="evenodd">
        <path d="M-5-5h38v38H-5z"/>
        <path fill="#9B9B9B" fill-rule="nonzero" d="M0 23.333c0 .856.7 1.556 1.556 1.556h7.777v-3.111H1.556c-.856 0-1.556.7-1.556 1.555zM0 4.667c0 .855.7 1.555 1.556 1.555h14v-3.11h-14C.7 3.111 0 3.811 0 4.666zm15.556 21.777V24.89h10.888c.856 0 1.556-.7 1.556-1.556 0-.855-.7-1.555-1.556-1.555H15.556v-1.556c0-.855-.7-1.555-1.556-1.555-.856 0-1.556.7-1.556 1.555v6.222c0 .856.7 1.556 1.556 1.556.856 0 1.556-.7 1.556-1.556zM6.222 10.89v1.555H1.556C.7 12.444 0 13.144 0 14c0 .856.7 1.556 1.556 1.556h4.666v1.555c0 .856.7 1.556 1.556 1.556.855 0 1.555-.7 1.555-1.556V10.89c0-.856-.7-1.556-1.555-1.556-.856 0-1.556.7-1.556 1.556zM28 14c0-.856-.7-1.556-1.556-1.556h-14v3.112h14c.856 0 1.556-.7 1.556-1.556zm-7.778-4.667c.856 0 1.556-.7 1.556-1.555V6.222h4.666c.856 0 1.556-.7 1.556-1.555 0-.856-.7-1.556-1.556-1.556h-4.666V1.556C21.778.7 21.078 0 20.222 0c-.855 0-1.555.7-1.555 1.556v6.222c0 .855.7 1.555 1.555 1.555z"/>
    </g>
</svg>
