<svg xmlns="http://www.w3.org/2000/svg" width="21" height="14" viewBox="0 0 21 14">
    <g fill="none" fill-rule="evenodd">
        <path d="M-4-7h28v28H-4z"/>
        <path fill="#9B9B9B" fill-rule="nonzero" d="M1.167 14h18.666A1.17 1.17 0 0 0 21 12.833a1.17 1.17 0 0 0-1.167-1.166H1.167A1.17 1.17 0 0 0 0 12.833 1.17 1.17 0 0 0 1.167 14zm0-5.833h18.666A1.17 1.17 0 0 0 21 7a1.17 1.17 0 0 0-1.167-1.167H1.167A1.17 1.17 0 0 0 0 7a1.17 1.17 0 0 0 1.167 1.167zM0 1.167a1.17 1.17 0 0 0 1.167 1.166h18.666A1.17 1.17 0 0 0 21 1.167 1.17 1.17 0 0 0 19.833 0H1.167A1.17 1.17 0 0 0 0 1.167z"/>
    </g>
</svg>
