<svg xmlns="http://www.w3.org/2000/svg" xmlns:xlink="http://www.w3.org/1999/xlink" width="65" height="80" viewBox="0 0 65 80">
    <g fill="none" fill-rule="evenodd">
        <g transform="translate(0 0)">
            <path fill="#DCD0C0" d="M9.907 57.327h21.818c14.49 0 26.277-11.788 26.277-26.277 0-14.49-11.788-26.277-26.277-26.277S5.448 16.56 5.448 31.05c0 6.644 2.49 12.987 7.011 17.862.575.619.779 1.496.537 2.306-.695 2.327-1.731 4.374-3.089 6.11m-1.7 4.772a3.987 3.987 0 0 1-3.682-2.437 4.007 4.007 0 0 1 .823-4.36c1.119-1.15 2.009-2.568 2.655-4.226A30.938 30.938 0 0 1 .675 31.05C.675 13.93 14.605 0 31.725 0c17.121 0 31.05 13.93 31.05 31.05 0 17.121-13.929 31.05-31.05 31.05H8.207z" mask="url(#b)"/>
            <path fill="#DCD0C0" d="M31.207 35.972c1.535 0 2.832 1.354 2.832 2.958 0 1.603-1.297 2.92-2.832 2.92-1.536 0-2.798-1.317-2.798-2.92 0-1.604 1.262-2.958 2.798-2.958m-2.014-4.845v-1.496c0-3.385 4.744-4.667 4.744-7.16 0-1.284-1.024-2.388-2.73-2.388-2.082 0-3.003 1.39-3.685 1.853-.273.178-.512.178-.75-.035l-1.605-1.64c-.273-.249-.239-.676 0-.926 0 0 2.32-3.135 6.688-3.135 3.583 0 6.62 2.494 6.62 5.985 0 4.31-5.187 5.558-5.187 7.696v1.175c0 .427-.238.748-.682.748h-2.764a.662.662 0 0 1-.649-.677" mask="url(#b)"/>
        </g>
    </g>
</svg>
