<svg xmlns="http://www.w3.org/2000/svg" width="22" height="17" viewBox="0 0 22 17">
    <g fill="none" fill-rule="evenodd">
        <path fill="#D8D8D8" fill-opacity="0" d="M0 0H24V24H0z" transform="translate(-1 -4)"/>
        <path fill="#C6902B" d="M7.474 17.013c2.434 1.934 6.84 1.928 9.01.02l-4.496-4.598-4.514 4.578m-1.88-1.756c1.362-1.388 2.672-2.743 4.01-4.071.338-.337.503-.668.517-1.165.018-.572.153-1.152.319-1.704.103-.344.06-.55-.201-.776-1.067-.924-2.271-1.265-3.623-.84-1.366.428-2.284 1.366-2.544 2.794-.384 2.116.306 3.982 1.522 5.762m12.787.023c1.174-1.63 1.768-3.35 1.632-5.258-.11-1.56-.957-2.68-2.407-3.233-1.43-.547-2.733-.227-3.877.794-.217.194-.257.374-.184.68.165.688.24 1.399.361 2.098.03.175.047.395.157.508 1.414 1.463 2.844 2.91 4.318 4.411m1.794 1.765c.714.821.782 1.473.244 2.029-.535.552-1.231.476-2.027-.237-4.248 2.882-8.512 2.885-12.78.005-.993.706-1.578.766-2.094.21-.51-.55-.436-1.174.266-2.036-.092-.138-.19-.29-.295-.438-1.368-1.95-2.094-4.112-1.977-6.511.122-2.488 1.316-4.34 3.527-5.412 2.214-1.074 4.366-.804 6.37.634.195.14.376.3.6.48.852-.757 1.805-1.309 2.913-1.573 3.715-.885 7.41 1.937 7.569 5.8.1 2.422-.6 4.601-1.979 6.569-.106.152-.214.303-.337.48" transform="translate(-1 -4)"/>
    </g>
</svg>
