<svg xmlns="http://www.w3.org/2000/svg" width="28" height="22" viewBox="0 0 28 22">
    <g fill="none" fill-rule="evenodd">
        <path fill="none" d="M-1-5h30v30H-1z"/>
        <path fill="#000" d="M8.342 16.267c3.043 2.417 8.55 2.41 11.263.025l-5.62-5.749-5.643 5.724m-2.35-2.196c1.703-1.734 3.341-3.429 5.012-5.089.423-.42.63-.834.648-1.455.021-.715.19-1.44.397-2.13.13-.431.075-.689-.25-.971-1.334-1.154-2.839-1.581-4.53-1.05-1.706.535-2.854 1.708-3.179 3.492-.48 2.645.382 4.978 1.903 7.203m15.984.03c1.466-2.038 2.21-4.188 2.04-6.573-.14-1.951-1.197-3.35-3.009-4.042-1.788-.683-3.417-.284-4.847.992-.271.243-.321.468-.23.85.207.86.3 1.749.452 2.624.038.219.059.492.195.634 1.768 1.829 3.555 3.638 5.399 5.514m2.241 2.206c.893 1.027.979 1.842.306 2.536-.668.69-1.54.595-2.534-.296-5.31 3.602-10.64 3.606-15.976.007-1.24.882-1.972.957-2.617.261-.637-.687-.545-1.466.334-2.543-.116-.173-.24-.364-.37-.55-1.71-2.436-2.618-5.138-2.47-8.138C1.042 4.473 2.534 2.16 5.297.82c2.768-1.342 5.458-1.005 7.963.792.244.175.47.375.75.6 1.065-.946 2.257-1.636 3.642-1.966 4.644-1.106 9.262 2.422 9.46 7.25.125 3.027-.75 5.751-2.472 8.21l-.423.6"/>
    </g>
</svg>
