<svg xmlns="http://www.w3.org/2000/svg" width="24" height="24" viewBox="0 0 24 24">
    <g fill="none" fill-rule="evenodd">
        <path d="M0 0L24 0 24 24 0 24z"/>
        <path fill="#685C73" d="M16.439 11.543c-.53 0-1.029-.172-1.446-.486-.416.314-.913.486-1.445.486-.53 0-1.03-.172-1.445-.486-.415.314-.915.486-1.446.486-.53 0-1.029-.172-1.445-.486-.416.314-.914.486-1.445.486-.163 0-.322-.019-.476-.048l3.462 11.618c.335 1.12 1.913 1.144 2.281.034l3.857-11.65c-.146.027-.297.046-.452.046M17.432 7.626c.21-.587.327-1.217.327-1.877C17.759 2.574 15.185 0 12.01 0S6.262 2.574 6.262 5.749c0 .698.135 1.36.367 1.976C6.25 8.048 6 8.512 6 9.049c0 .976.79 1.768 1.767 1.768.614 0 1.128-.334 1.446-.809.316.475.83.81 1.444.81s1.13-.335 1.446-.81c.316.475.83.81 1.446.81.613 0 1.128-.335 1.444-.81.318.475.832.81 1.446.81.976 0 1.768-.793 1.768-1.769 0-.6-.319-1.104-.775-1.423"/>
    </g>
</svg>
