<svg xmlns="http://www.w3.org/2000/svg" width="24" height="24" viewBox="0 0 24 24">
    <g fill="none" fill-rule="evenodd">
        <path d="M0.4 0L23.6 0 23.6 23.2 0.4 23.2z"/>
        <path fill="#AE543D" fill-rule="nonzero" d="M11.6 2.4c-2.816 0-5.388 1.048-7.376 2.795-.668.592-.81 1.601-.376 2.387l6.932 12.723c.358.66 1.282.66 1.64 0l6.932-12.723c.434-.786.292-1.805-.376-2.387C16.997 3.458 14.416 2.4 11.6 2.4zM6.89 7.252c0-1.067.848-1.94 1.884-1.94s1.884.873 1.884 1.94c0 1.068-.848 1.941-1.884 1.941S6.89 8.32 6.89 7.253zm4.71 7.764c-1.036 0-1.884-.873-1.884-1.94 0-1.068.848-1.942 1.884-1.942s1.884.874 1.884 1.941c0 1.068-.848 1.941-1.884 1.941z"/>
    </g>
</svg>
