<svg xmlns="http://www.w3.org/2000/svg" width="30" height="29" viewBox="0 0 30 29">
    <path fill="#DCD0C0" fill-rule="nonzero" d="M15.449 0c-3.94 0-4.431.018-5.978.087-1.544.073-2.595.315-3.52.674a7.1 7.1 0 0 0-2.569 1.673A7.075 7.075 0 0 0 1.71 5.003c-.359.924-.603 1.975-.674 3.52C.963 10.068.949 10.56.949 14.5c0 3.94.018 4.431.087 5.978.072 1.543.315 2.595.674 3.52a7.11 7.11 0 0 0 1.672 2.568 7.09 7.09 0 0 0 2.57 1.673c.925.357 1.976.603 3.52.674 1.546.072 2.038.087 5.977.087 3.939 0 4.43-.018 5.977-.087 1.543-.073 2.596-.317 3.52-.674a7.127 7.127 0 0 0 2.57-1.673 7.08 7.08 0 0 0 1.671-2.569c.358-.924.603-1.976.675-3.52.072-1.546.087-2.038.087-5.977 0-3.94-.018-4.431-.087-5.978-.073-1.543-.317-2.596-.675-3.52a7.117 7.117 0 0 0-1.672-2.568A7.065 7.065 0 0 0 24.946.76c-.924-.359-1.977-.603-3.52-.674C19.88.015 19.388 0 15.45 0zm0 2.61c3.87 0 4.332.02 5.86.086 1.414.066 2.181.3 2.691.501.68.262 1.16.577 1.67 1.083.506.507.82.99 1.083 1.669.198.51.435 1.277.499 2.69.069 1.53.084 1.99.084 5.861 0 3.872-.018 4.332-.09 5.86-.073 1.414-.308 2.181-.508 2.691-.27.68-.579 1.16-1.086 1.67-.506.507-.996.82-1.668 1.083-.507.198-1.286.435-2.7.499-1.54.069-1.993.085-5.872.085-3.88 0-4.333-.019-5.87-.09-1.416-.074-2.195-.31-2.703-.509a4.49 4.49 0 0 1-1.666-1.086 4.403 4.403 0 0 1-1.087-1.667c-.2-.508-.434-1.287-.508-2.701-.054-1.522-.074-1.992-.074-5.853 0-3.862.02-4.333.074-5.874.074-1.414.308-2.192.508-2.7.253-.688.578-1.16 1.087-1.668.506-.506.979-.833 1.666-1.085.508-.2 1.27-.436 2.684-.509 1.54-.054 1.994-.072 5.871-.072l.055.036zm0 4.444A7.445 7.445 0 0 0 8.003 14.5a7.445 7.445 0 0 0 7.446 7.446 7.445 7.445 0 0 0 7.445-7.446 7.445 7.445 0 0 0-7.445-7.446zm0 12.28a4.832 4.832 0 0 1-4.834-4.834 4.832 4.832 0 0 1 4.834-4.833 4.832 4.832 0 0 1 4.833 4.833 4.832 4.832 0 0 1-4.833 4.833zm9.48-12.573a1.741 1.741 0 0 1-3.48 0 1.741 1.741 0 0 1 3.48 0z"/>
</svg>
