<svg xmlns="http://www.w3.org/2000/svg" width="30" height="29" viewBox="0 0 30 29">
    <g fill="none" fill-rule="evenodd">
        <path d="M.5 0h29v29H.5z"/>
        <path fill="#000" fill-rule="nonzero" d="M14.5 3c-3.52 0-6.735 1.31-9.22 3.494-.835.74-1.012 2.001-.47 2.984l8.666 15.903a1.157 1.157 0 0 0 2.048 0L24.19 9.478c.542-.983.365-2.256-.47-2.984C21.246 4.322 18.02 3 14.5 3zM8.613 9.065c0-1.334 1.06-2.426 2.355-2.426s2.355 1.092 2.355 2.426c0 1.335-1.06 2.427-2.355 2.427-1.296 0-2.355-1.092-2.355-2.427zM14.5 18.77c-1.295 0-2.355-1.092-2.355-2.426 0-1.335 1.06-2.426 2.355-2.426s2.355 1.091 2.355 2.426c0 1.334-1.06 2.426-2.355 2.426z"/>
    </g>
</svg>
