<svg xmlns="http://www.w3.org/2000/svg" xmlns:xlink="http://www.w3.org/1999/xlink" width="60" height="80" viewBox="0 0 60 80">
    <g fill="none" fill-rule="evenodd" transform="translate(-13)">
        <g transform="translate(15 0)">
            <path fill="#DCD0C0" d="M28.144 6.41c-12.435 0-22.551 9.989-22.551 22.267 0 4.414 1.307 8.681 3.78 12.34l16.099 24.054a3.165 3.165 0 0 0 2.672 1.42 3.165 3.165 0 0 0 2.672-1.42l16.092-24.045.007-.009a21.963 21.963 0 0 0 3.78-12.34C50.695 16.4 40.578 6.41 28.144 6.41m0 65.14c-2.805 0-5.401-1.38-6.947-3.69L5.105 43.817A26.947 26.947 0 0 1 .469 28.677C.469 13.61 12.884 1.35 28.144 1.35c15.26 0 27.675 12.259 27.675 27.327a26.964 26.964 0 0 1-4.64 15.145L35.09 67.861a8.333 8.333 0 0 1-6.946 3.689" mask="url(#b)"/>
            <path fill="#DCD0C0" d="M28.819 21.318a7.04 7.04 0 0 0-7.032 7.032 7.04 7.04 0 0 0 7.032 7.032 7.04 7.04 0 0 0 7.032-7.032 7.04 7.04 0 0 0-7.032-7.032m0 19.182c-6.7 0-12.15-5.45-12.15-12.15s5.45-12.15 12.15-12.15 12.15 5.45 12.15 12.15-5.45 12.15-12.15 12.15" mask="url(#b)"/>
        </g>
    </g>
</svg>
